<?xml version="1.0" standalone="no"?>
<!DOCTYPE svg PUBLIC "-//W3C//DTD SVG 20010904//EN"
 "http://www.w3.org/TR/2001/REC-SVG-20010904/DTD/svg10.dtd">
<svg version="1.0" xmlns="http://www.w3.org/2000/svg"
 width="704.000000pt" height="704.000000pt" viewBox="0 0 704.000000 704.000000"
 preserveAspectRatio="xMidYMid meet">
<metadata>
Created by potrace 1.14, written by Peter Selinger 2001-2017
</metadata>
<g transform="translate(0.000000,704.000000) scale(0.100000,-0.100000)"
fill="#000000" stroke="none">
<path d="M3078 6235 c-2 -2 -66 -6 -143 -9 -164 -8 -247 -13 -330 -21 -33 -3
-85 -8 -115 -11 -30 -2 -71 -6 -90 -9 -19 -2 -64 -7 -100 -11 -36 -3 -74 -8
-85 -10 -23 -5 -89 -14 -125 -18 -14 -1 -30 -5 -35 -7 -6 -3 -22 -6 -38 -7
-15 -1 -82 -13 -150 -28 -165 -34 -156 -32 -177 -39 -10 -3 -27 -7 -37 -10
-10 -2 -52 -13 -93 -25 -41 -12 -79 -22 -85 -24 -22 -5 -121 -38 -140 -46 -11
-5 -45 -19 -75 -30 -372 -140 -652 -370 -799 -655 -34 -68 -83 -195 -74 -195
3 0 0 -6 -6 -14 -7 -8 -14 -27 -17 -43 -3 -15 -12 -62 -20 -103 -9 -41 -18
-88 -20 -105 -2 -16 -7 -48 -10 -70 -3 -22 -7 -51 -9 -65 -2 -14 -6 -43 -9
-65 -10 -70 -15 -109 -22 -160 -3 -27 -8 -59 -10 -70 -2 -10 -6 -37 -9 -60 -3
-22 -8 -51 -10 -65 -3 -14 -7 -47 -10 -75 -3 -27 -7 -59 -9 -70 -5 -26 -14
-89 -21 -145 -3 -25 -10 -73 -16 -108 -5 -34 -12 -84 -15 -110 -3 -26 -7 -54
-9 -62 -2 -8 -7 -40 -10 -70 -3 -30 -8 -66 -11 -80 -6 -31 -14 -94 -19 -140
-2 -19 -8 -64 -14 -100 -11 -72 -22 -142 -27 -180 -1 -14 -5 -41 -8 -60 -3
-19 -8 -57 -11 -85 -3 -27 -8 -57 -10 -66 -3 -8 -7 -37 -10 -65 -2 -27 -7 -60
-10 -74 -3 -14 -7 -45 -10 -69 -2 -24 -8 -62 -12 -85 -17 -97 -8 -382 16 -506
18 -90 73 -269 91 -295 4 -5 11 -21 15 -35 4 -14 16 -37 27 -52 11 -16 17 -28
14 -28 -13 0 102 -175 168 -255 48 -57 188 -195 199 -195 4 0 16 -8 26 -18 38
-34 82 -63 156 -104 153 -85 301 -133 475 -153 58 -7 231 -8 265 -1 11 2 41 7
66 10 68 9 194 44 263 72 229 95 405 227 557 419 101 127 154 226 308 571 l23
51 841 -1 841 -1 13 -25 c19 -36 87 -184 88 -190 0 -3 24 -54 54 -115 52 -107
128 -233 157 -262 8 -8 14 -18 14 -22 0 -27 299 -301 329 -301 5 0 11 -3 13
-7 13 -31 252 -136 383 -169 17 -4 32 -8 35 -9 3 -1 30 -5 60 -9 30 -5 64 -10
75 -12 29 -6 223 -5 270 2 22 3 51 7 65 8 38 5 150 35 193 51 20 8 38 14 40
13 4 -5 202 95 205 103 2 5 8 9 13 9 19 0 157 109 231 182 70 68 198 226 198
244 0 4 6 15 14 23 8 9 33 54 56 101 23 47 48 96 55 110 7 14 15 37 19 52 3
15 11 40 18 55 13 32 11 26 33 118 34 143 43 229 40 395 -2 91 -6 176 -9 189
-3 14 -8 47 -11 75 -3 28 -8 60 -10 71 -7 32 -16 97 -20 140 -2 22 -7 52 -9
66 -3 14 -8 45 -10 70 -3 24 -6 44 -6 44 -1 0 -3 11 -5 25 -4 34 -35 255 -39
277 -2 10 -7 45 -10 78 -4 33 -9 67 -11 75 -2 8 -7 35 -10 60 -2 25 -7 54 -9
65 -2 11 -7 43 -10 70 -6 48 -8 63 -22 150 -3 22 -7 58 -9 80 -2 22 -7 51 -9
64 -3 14 -8 45 -11 70 -3 25 -7 57 -10 71 -3 14 -8 48 -11 75 -3 28 -9 73 -14
100 -5 28 -12 71 -15 97 -5 44 -7 62 -20 153 -3 19 -7 51 -10 70 -3 19 -7 52
-10 73 -3 20 -7 48 -10 62 -3 14 -7 42 -9 62 -7 50 -41 192 -61 253 -82 241
-258 460 -491 613 -151 98 -385 205 -569 260 -174 52 -243 70 -330 88 -11 2
-31 6 -45 9 -77 17 -175 35 -215 41 -16 2 -41 6 -55 8 -31 6 -106 17 -140 21
-14 1 -43 5 -65 9 -22 3 -67 8 -100 11 -33 3 -76 7 -95 10 -46 6 -132 13 -250
21 -52 3 -122 8 -155 11 -68 5 -1052 13 -1057 8z m832 -569 c80 -4 168 -9 195
-11 64 -5 191 -16 230 -19 17 -2 62 -6 100 -10 39 -4 81 -9 95 -11 14 -3 46
-7 72 -10 26 -3 63 -7 82 -10 20 -3 51 -7 69 -9 73 -10 133 -19 152 -23 37 -7
130 -23 175 -29 25 -3 48 -8 51 -10 4 -2 24 -6 45 -9 22 -3 45 -8 53 -11 8 -2
30 -7 50 -10 20 -3 50 -9 66 -14 30 -8 110 -23 110 -20 0 1 14 -4 30 -10 17
-7 39 -13 50 -15 46 -8 106 -27 134 -41 14 -8 31 -14 36 -14 6 0 34 -16 64
-35 29 -19 56 -35 60 -35 12 0 155 -141 188 -185 71 -95 152 -273 169 -371 2
-13 7 -36 10 -51 3 -16 6 -35 6 -43 0 -8 4 -35 8 -60 5 -25 12 -72 15 -105 4
-33 9 -69 11 -80 2 -11 7 -40 10 -65 3 -25 7 -55 9 -66 2 -12 7 -48 10 -80 4
-33 9 -68 12 -79 2 -11 6 -38 9 -60 3 -22 7 -51 10 -65 2 -14 6 -47 10 -75 3
-27 7 -62 10 -77 9 -61 14 -96 24 -163 15 -100 18 -120 20 -120 1 0 3 -22 5
-50 2 -27 6 -59 8 -70 3 -11 8 -45 12 -75 3 -30 9 -68 11 -85 3 -16 8 -46 10
-65 3 -19 7 -48 10 -65 2 -16 7 -50 10 -75 3 -25 7 -56 9 -69 2 -13 7 -45 11
-70 3 -25 7 -57 10 -70 2 -13 6 -45 9 -70 11 -79 15 -105 19 -128 3 -12 7 -48
11 -79 3 -32 8 -62 11 -66 7 -10 6 -192 0 -224 -3 -12 -7 -37 -10 -55 -16 -99
-77 -267 -113 -310 -7 -8 -13 -19 -13 -23 0 -5 -10 -20 -22 -35 -13 -16 -36
-45 -53 -66 -29 -38 -63 -72 -115 -114 -14 -11 -30 -24 -35 -29 -23 -19 -145
-82 -145 -75 0 5 -4 3 -8 -3 -14 -23 -165 -57 -262 -59 -122 -4 -266 25 -345
68 -11 6 -23 11 -26 12 -3 0 -34 19 -70 42 -128 83 -237 214 -312 373 -55 117
-107 228 -144 310 -19 41 -47 100 -61 129 -45 96 -136 168 -239 187 -21 4
-479 7 -1018 7 -743 0 -991 -3 -1025 -13 -100 -27 -188 -105 -238 -210 -14
-30 -26 -57 -27 -60 -1 -3 -16 -36 -34 -75 -45 -96 -87 -188 -91 -200 -10 -28
-94 -183 -122 -223 -85 -124 -228 -242 -359 -294 -121 -49 -287 -66 -422 -44
-50 8 -151 43 -207 72 -93 47 -216 151 -270 229 -14 20 -30 42 -36 48 -44 50
-122 244 -139 347 -4 25 -9 54 -11 65 -6 28 -6 214 -1 223 3 4 8 36 12 72 4
36 9 74 11 85 3 11 7 38 10 60 3 22 7 51 9 65 2 14 6 48 10 75 6 52 12 93 20
135 2 14 7 45 10 70 3 25 7 56 9 70 3 14 7 45 10 70 3 25 8 54 10 65 2 11 7
47 11 80 4 33 9 69 11 80 5 32 13 86 20 139 3 27 8 58 10 70 4 20 10 64 18
136 2 19 7 46 10 60 3 14 8 45 11 70 3 25 8 58 10 73 2 15 7 44 9 65 6 37 11
79 21 157 3 22 7 51 10 64 2 14 7 45 10 70 3 25 7 55 9 66 2 11 7 43 10 70 18
134 25 183 32 220 8 42 9 47 17 70 3 11 8 31 11 45 8 45 67 174 113 244 48 74
168 200 221 231 17 11 32 23 32 27 0 4 9 8 19 8 11 0 22 4 26 9 17 28 195 89
336 116 13 3 47 9 74 15 28 6 61 12 75 15 14 3 36 7 50 10 14 3 36 8 50 11 14
3 34 7 45 9 42 9 329 56 364 60 49 6 108 14 156 21 40 6 54 8 169 19 33 3 78
8 100 10 116 14 237 22 451 31 88 3 161 7 162 8 5 4 466 -2 593 -8z"/>
<path d="M2025 4905 c-109 -45 -175 -137 -181 -255 -4 -76 -5 -182 -1 -225 1
-16 -1 -40 -5 -52 -4 -13 -4 -23 0 -23 4 0 6 -19 4 -43 l-4 -43 -193 -1 c-201
-1 -244 -7 -300 -47 -44 -30 -63 -54 -92 -115 -58 -122 -22 -266 89 -357 8 -6
35 -19 61 -29 40 -15 79 -18 242 -18 l195 0 1 -41 c0 -45 -1 -305 -3 -321 0
-13 10 -71 22 -112 19 -71 86 -140 162 -168 124 -44 261 18 321 145 20 41 22
67 27 270 l5 225 181 1 c99 1 198 4 219 8 36 7 135 63 135 76 0 4 8 15 18 26
27 29 54 103 57 154 6 128 -55 235 -163 282 -41 18 -67 21 -246 21 l-201 1 -5
225 c-4 203 -7 231 -26 272 -39 83 -115 142 -201 154 -21 4 -43 8 -49 10 -6 2
-37 -7 -69 -20z"/>
<path d="M5098 4925 c-2 -2 -22 -5 -45 -9 -92 -12 -178 -69 -231 -153 -31 -49
-65 -147 -55 -157 4 -3 1 -6 -5 -6 -6 0 -9 -6 -7 -12 2 -7 6 -43 9 -81 8 -128
85 -245 201 -305 69 -36 182 -40 256 -10 132 55 222 198 222 353 0 151 -78
288 -196 343 -38 18 -142 43 -149 37z"/>
<path d="M4274 3767 c-194 -84 -278 -335 -177 -532 58 -111 168 -187 288 -197
33 -3 107 16 151 37 127 62 209 208 199 357 -5 89 -4 84 -40 173 -22 53 -93
123 -157 154 -79 38 -187 41 -264 8z"/>
</g>
</svg>
